<svg xmlns="http://www.w3.org/2000/svg" xmlns:xlink="http://www.w3.org/1999/xlink" width="113.135" height="40" viewBox="0 0 113.135 40">
  <defs>
    <filter id="Ellipse_3946" x="0.754" y="0" width="40" height="40" filterUnits="userSpaceOnUse">
      <feOffset input="SourceAlpha"/>
      <feGaussianBlur stdDeviation="2" result="blur"/>
      <feFlood flood-color="#fff" flood-opacity="0.502"/>
      <feComposite operator="in" in2="blur"/>
      <feComposite in="SourceGraphic"/>
    </filter>
  </defs>
  <g id="logo_event_trungthu" transform="translate(-37.246 -4)">
    <g id="Group_46169" data-name="Group 46169" transform="translate(44.029 9.997)">
      <g id="Group_28890" data-name="Group 28890" transform="translate(-36 -1.997)">
        <path id="Path_33185" data-name="Path 33185" d="M74.617,22.855H72.19V11.18h2.427V16.8l4.624-5.619h2.913l-4.7,5.716,4.733,5.959H79.047l-4.43-5.826Z" transform="translate(0 0.893)" fill="#fff"/>
        <path id="Path_33186" data-name="Path 33186" d="M90.124,11.859v2.027H86.1a2.828,2.828,0,0,0-2.039.692,2.646,2.646,0,0,0-.728,2.039h6.784v2.027H83.328a3.01,3.01,0,0,0,.546,2.051,2.087,2.087,0,0,0,1,.7,5.91,5.91,0,0,0,1.214.109h4.029v2.027H85.962a8.338,8.338,0,0,1-1.99-.206,4.309,4.309,0,0,1-3.058-2.852,7.646,7.646,0,0,1-.413-2.561v-.7A5.912,5.912,0,0,1,80.621,16a9.4,9.4,0,0,1,.328-1.141,4.466,4.466,0,0,1,.461-.935,4.612,4.612,0,0,1,.765-.91,2.986,2.986,0,0,1,1.214-.74,6.906,6.906,0,0,1,1.335-.316,8.654,8.654,0,0,1,1.214-.085Zm-5.377-1.432H83.534L85.282,8h2.051l2.27,2.427H88.389L86.314,9.214Z" transform="translate(1.775 0.214)" fill="#fff"/>
        <path id="Path_33187" data-name="Path 33187" d="M98.6,22.849H96.048V13.237H92.31V11.21h10.049v2.027H98.6Z" transform="translate(4.299 0.9)" fill="#fff"/>
        <path id="Path_33188" data-name="Path 33188" d="M101.3,14.477a4.26,4.26,0,0,1,1.007-1.905,5.243,5.243,0,0,1,1.214-.9,4.733,4.733,0,0,1,1.129-.437,7.9,7.9,0,0,1,1.068-.206h1.092a8.557,8.557,0,0,1,1.845.17c.449.121.752.194.922.255a5.426,5.426,0,0,1,.716.328,3.228,3.228,0,0,1,.813.643,4.491,4.491,0,0,1,1.214,2.075,9.042,9.042,0,0,1,.376,2.609,9.575,9.575,0,0,1-.376,2.622,4.442,4.442,0,0,1-1.214,2.1,4.369,4.369,0,0,1-2,1.08,10.049,10.049,0,0,1-2.245.267,8.787,8.787,0,0,1-2.1-.243,3.921,3.921,0,0,1-.619-.17,6.239,6.239,0,0,1-.7-.328,4.418,4.418,0,0,1-.85-.631,3.641,3.641,0,0,1-.728-.935,7.052,7.052,0,0,1-.57-1.481,8.3,8.3,0,0,1-.291-2.33,8.617,8.617,0,0,1,.3-2.585Zm2.5.837a6.833,6.833,0,0,0-.194,1.723,8.957,8.957,0,0,0,.316,2.185,2.075,2.075,0,0,0,1.214,1.59,5.158,5.158,0,0,0,1.6.328,4.2,4.2,0,0,0,1.214-.182,2.658,2.658,0,0,0,1.736-2.124,6.5,6.5,0,0,0,.218-1.748,5.9,5.9,0,0,0-.146-1.529c-.109-.4-.17-.643-.218-.752a2.694,2.694,0,0,0-.243-.5,2.427,2.427,0,0,0-.522-.643,1.918,1.918,0,0,0-.728-.425,4.856,4.856,0,0,0-.692-.17,4.029,4.029,0,0,0-1.821.134,2.949,2.949,0,0,0-1.736,2.112Z" transform="translate(6.155 0.861)" fill="#fff"/>
        <path id="Path_33189" data-name="Path 33189" d="M113.227,23.535h-2.6l4.855-11.675h2.6l4.988,11.675h-2.731l-1.08-2.791h-5.025Zm1.8-4.855h3.5l-1.772-4.466Zm1.6-8.253h-1.214L117.147,8h2.427Z" transform="translate(8.213 0.214)" fill="#fff"/>
        <path id="Path_33190" data-name="Path 33190" d="M124.112,22.855H121.6V11.18h3.119l4.758,8.411-.109-8.411h2.427V22.855h-2.828l-5-8.823Z" transform="translate(10.557 0.893)" fill="#fff"/>
        <path id="Path_33191" data-name="Path 33191" d="M89.214,9.427H88L89.214,7h2.427Z" transform="translate(3.378 0)" fill="#fff"/>
      </g>
    </g>
    <g id="Group_46171" data-name="Group 46171">
      <g transform="matrix(1, 0, 0, 1, 37.25, 4)" filter="url(#Ellipse_3946)">
        <circle id="Ellipse_3946-2" data-name="Ellipse 3946" cx="14" cy="14" r="14" transform="translate(6.75 6)" fill="#fff"/>
      </g>
      <g id="icon" transform="translate(44.029 9.997)">
        <path id="Path_1" data-name="Path 1" d="M20.46,1.58a14,14,0,0,0-12.91,0L14,8l6,6,6.45-6.46a14,14,0,0,0-5.99-5.96Z" fill="#ff9500"/>
        <path id="Path_2" data-name="Path 2" d="M14,20,8,14,1.58,20.46a14,14,0,0,0,18.88,6Z" fill="#4cd964"/>
        <path id="Path_3" data-name="Path 3" d="M26.42,7.55,20,14l-6,6,6.46,6.45a14,14,0,0,0,6-18.87Z" fill="#007aff"/>
        <path id="Path_4" data-name="Path 4" d="M7.54,1.58a14,14,0,0,0-6,18.87L8,14l6-6Z" fill="#ff3b30"/>
        <rect id="Rectangle_12" data-name="Rectangle 12" width="8.44" height="8.44" transform="translate(8.031 14) rotate(-45)" fill="#393a3d"/>
        <path id="Path_5" data-name="Path 5" d="M9.78,15.75,1.61,20.43,8,14Z" opacity="0.15"/>
        <path id="Path_6" data-name="Path 6" d="M12.25,9.78,7.58,1.61,14,8Z" opacity="0.15"/>
        <path id="Path_7" data-name="Path 7" d="M18.22,12.25l8.17-4.68L20,14Z" opacity="0.15"/>
        <path id="Path_8" data-name="Path 8" d="M15.75,18.22l4.68,8.17L14,20Z" opacity="0.15"/>
        <path id="Path_10" data-name="Path 10" d="M14,9.15,18.85,14,14,18.85,9.15,14Z" fill="#fff"/>
      </g>
      <g id="Group_46170" data-name="Group 46170" transform="translate(37.246 30.282)">
        <g id="Group_43696" data-name="Group 43696">
          <path id="Path_84974" data-name="Path 84974" d="M161.76,51.856a1.913,1.913,0,0,1-.48-1.43,2.561,2.561,0,0,1,2.868-2.027,3.107,3.107,0,0,1,1.06.254,2.509,2.509,0,0,1,2.7-1.708,2.4,2.4,0,0,1,2.333,1.8,1.976,1.976,0,0,1,1.675-.684,1.631,1.631,0,0,1,1.686,1.612,1.275,1.275,0,0,1-.042.217,3.706,3.706,0,0,1,1.624-.261,2.8,2.8,0,0,1,2.894,2.767,2.444,2.444,0,0,1-1.057,1.741c.1.163.352.449,1.076.442a21.32,21.32,0,0,1,2.821-.022,3.1,3.1,0,0,1,1.429.464c.206.149.63.492.415.735-.433-.4-1.466-.282-2.04-.249-1.446.082-4.753,1.669-7.028-.256a2.763,2.763,0,0,1-2.644,1.32,2.87,2.87,0,0,1-1.844-.783,2.787,2.787,0,0,1-2.605,1.249,2.531,2.531,0,0,1-2.411-1.772,2.827,2.827,0,0,1-2.148.747,2.276,2.276,0,0,1-2.352-2.249A2.3,2.3,0,0,1,161.76,51.856Z" transform="translate(-159.595 -46.854)" fill="#fff"/>
          <path id="Path_84975" data-name="Path 84975" d="M166.1,56.418a2.936,2.936,0,0,0,2.428-1.177,3.017,3.017,0,0,0,1.8.706,2.928,2.928,0,0,0,2.682-1.246c1.745,1.365,4,.831,5.648.439a8.76,8.76,0,0,1,1.329-.254l.18-.011c.56-.037,1.406-.092,1.756.227a.137.137,0,0,0,.187-.008c.136-.154.172-.429-.431-.865a3.123,3.123,0,0,0-1.487-.486,11.167,11.167,0,0,0-1.917-.014c-.3.015-.609.031-.914.034a1.1,1.1,0,0,1-.919-.321,2.5,2.5,0,0,0,1.022-1.75,2.367,2.367,0,0,0-.776-1.943,3.511,3.511,0,0,0-2.219-.922,3.87,3.87,0,0,0-1.471.192c0-.014,0-.028,0-.042a1.415,1.415,0,0,0-.464-1.162,2.1,2.1,0,0,0-1.327-.552,2.167,2.167,0,0,0-1.612.545,2.594,2.594,0,0,0-2.383-1.653,2.653,2.653,0,0,0-2.786,1.657,3.25,3.25,0,0,0-.962-.207,3.178,3.178,0,0,0-2.026.547,2.169,2.169,0,0,0-.962,1.565,1.982,1.982,0,0,0,.4,1.369,2.165,2.165,0,1,0,.467,4.3,3.016,3.016,0,0,0,2.085-.638,2.7,2.7,0,0,0,2.46,1.661C165.962,56.416,166.03,56.418,166.1,56.418Zm2.4-1.45h-.015a.121.121,0,0,0-.094.056,2.672,2.672,0,0,1-2.479,1.189,2.415,2.415,0,0,1-2.295-1.687.11.11,0,0,0-.088-.077.135.135,0,0,0-.122.032,2.7,2.7,0,0,1-2.04.71,1.98,1.98,0,1,1-.267-3.943.118.118,0,0,0,.089-.06.084.084,0,0,0-.013-.094,1.832,1.832,0,0,1-.457-1.362,1.981,1.981,0,0,1,.879-1.43,2.893,2.893,0,0,1,1.851-.5,2.949,2.949,0,0,1,1.009.242.143.143,0,0,0,.109,0,.1.1,0,0,0,.066-.071,2.378,2.378,0,0,1,2.565-1.623,2.294,2.294,0,0,1,2.216,1.705.11.11,0,0,0,.093.083.133.133,0,0,0,.127-.043,1.935,1.935,0,0,1,2.723-.154,1.24,1.24,0,0,1,.407,1.018,1.164,1.164,0,0,1-.039.2.09.09,0,0,0,.043.1.142.142,0,0,0,.127.011,3.56,3.56,0,0,1,1.557-.25,3.251,3.251,0,0,1,2.055.854,2.191,2.191,0,0,1,.719,1.8,2.337,2.337,0,0,1-1.013,1.67.087.087,0,0,0-.029.117,1.215,1.215,0,0,0,1.153.5h.029c.311,0,.624-.019.926-.035a10.882,10.882,0,0,1,1.867.012,2.879,2.879,0,0,1,1.363.439c.136.1.4.312.429.482a3.577,3.577,0,0,0-1.8-.182l-.178.011a8.881,8.881,0,0,0-1.379.261c-1.634.388-3.872.919-5.532-.486a.137.137,0,0,0-.108-.028.118.118,0,0,0-.089.058,2.631,2.631,0,0,1-2.517,1.257A2.721,2.721,0,0,1,168.592,55,.132.132,0,0,0,168.5,54.968Z" transform="translate(-158.885 -46.149)" fill="#eebf50"/>
        </g>
        <g id="Group_43701" data-name="Group 43701" transform="translate(0.813 2.809)">
          <g id="Group_43698" data-name="Group 43698" transform="translate(11.307 0.635)">
            <path id="Path_84977" data-name="Path 84977" d="M219.649,66.583a1.781,1.781,0,0,0,.4-.18,1.5,1.5,0,0,0,.321-.278,1.172,1.172,0,0,0,.086-.109l.031-.042.032-.042a1.124,1.124,0,0,0,.081-.114,1.887,1.887,0,0,0,.19-.388,2.583,2.583,0,0,0,.1-.431c.018-.121.029-.206.049-.208s.042.081.056.211a1.749,1.749,0,0,1-.026.478,1.841,1.841,0,0,1-.158.461,1.26,1.26,0,0,1-.08.142l-.033.053-.041.047a1.267,1.267,0,0,1-.114.118,1.554,1.554,0,0,1-.41.273,1.393,1.393,0,0,1-.469.115c-.131,0-.216-.011-.217-.028S219.533,66.617,219.649,66.583Z" transform="translate(-219.451 -64.79)" fill="#eebf50"/>
          </g>
          <g id="Group_43699" data-name="Group 43699" transform="translate(9.366)">
            <path id="Path_84978" data-name="Path 84978" d="M240.363,59.631l-.036.107a1.694,1.694,0,0,0-.055.24,1.206,1.206,0,0,0-.011.247c0,.069.01.119-.008.128s-.056-.028-.093-.1a.774.774,0,0,1-.079-.278,1.376,1.376,0,0,1,0-.287c.009-.077.019-.128.019-.128a2.051,2.051,0,0,1,.177-.368c.1-.174.246-.319.276-.3s-.049.2-.1.377A3.115,3.115,0,0,0,240.363,59.631Z" transform="translate(-240.075 -58.894)" fill="#eebf50"/>
          </g>
          <g id="Group_43700" data-name="Group 43700" transform="translate(1.219 0.014)">
            <path id="Path_84979" data-name="Path 84979" d="M242.428,63.352a1.061,1.061,0,0,1,.581-.305,1.523,1.523,0,0,1,.455-.02,1.1,1.1,0,0,1,.127.02l.045.009a1.133,1.133,0,0,1,.167.058,1.049,1.049,0,0,1,.383.275.978.978,0,0,1,.091.133c.011-.075.023-.152.038-.231a1.951,1.951,0,0,1,.2-.572l.026-.042-.083.023c-.076.01-.151.026-.226.029a1.43,1.43,0,0,1-.222-.006,1.586,1.586,0,0,1-.729-.272,1.178,1.178,0,0,1-.379-.393.479.479,0,0,1-.059-.142c-.009-.034-.012-.052-.008-.054s.016.014.033.044a.68.68,0,0,0,.078.123,1.259,1.259,0,0,0,.39.334,1.521,1.521,0,0,0,.685.211,1.324,1.324,0,0,0,.2,0c.067-.005.132-.024.2-.035s.131-.04.194-.068a1.513,1.513,0,0,0,.185-.1,1.483,1.483,0,0,0,.563-.565.931.931,0,0,0,.087-.651,1.034,1.034,0,0,0-.2-.427c-.035-.045-.068-.076-.088-.1l-.035-.031a.967.967,0,0,0-.138-.112.8.8,0,0,0-.433-.137.819.819,0,0,0-.589.25,1.044,1.044,0,0,0-.2.318.737.737,0,0,0-.033.376.79.79,0,0,0,.46.585.469.469,0,0,0,.34-.01.584.584,0,0,0,.254-.2.6.6,0,0,0,.156-.46c-.023-.118-.091-.165-.08-.174s.086.026.133.161a.641.641,0,0,1-.125.535.653.653,0,0,1-.723.288.792.792,0,0,1-.384-.262,1.062,1.062,0,0,1-.216-.424.931.931,0,0,1,.023-.488,1.252,1.252,0,0,1,.239-.4,1.032,1.032,0,0,1,1.326-.182,1.192,1.192,0,0,1,.18.138l.043.04c.024.03.064.07.106.128a1.282,1.282,0,0,1,.236.536,1.164,1.164,0,0,1-.134.808,1.672,1.672,0,0,1-.665.623,1.692,1.692,0,0,1-.211.1l-.027.009-.008.019-.034.1a2.458,2.458,0,0,0-.107.556,3.145,3.145,0,0,0-.005.565l.007.1.017.076.015.066a1.158,1.158,0,0,0,.053.243,1.6,1.6,0,0,0,.085.245,2.832,2.832,0,0,0,.126.275c.083.162.177.319.255.447l.053.057a1.486,1.486,0,0,0,.166.146.736.736,0,0,0,.111.076.926.926,0,0,0,.129.073,1.258,1.258,0,0,0,.312.107,1.557,1.557,0,0,0,.365.021,1.75,1.75,0,0,0,.387-.067,2.362,2.362,0,0,0,.381-.144,2.143,2.143,0,0,0,.354-.2,1.475,1.475,0,0,0,.282-.268,1.623,1.623,0,0,0,.1-.15,1.564,1.564,0,0,0,.081-.162,1.659,1.659,0,0,0,.088-.321,1.093,1.093,0,0,0-.008-.5.458.458,0,0,0-.063-.125l-.033-.039s.007.007.019.016l-.006-.006-.056-.057-.06-.052a.908.908,0,0,0-.166-.128,1.077,1.077,0,0,0-.6-.189,2.092,2.092,0,0,0-.665.087c-.176.054-.269.139-.285.124s.063-.129.244-.221a1.87,1.87,0,0,1,.7-.181,1.209,1.209,0,0,1,.62.11,1.727,1.727,0,0,0,.643-.3,1.6,1.6,0,0,0,.458-.572.992.992,0,0,0,.077-.189,1.489,1.489,0,0,0,.054-.2,1.428,1.428,0,0,0,.014-.419,1.322,1.322,0,0,0-.326-.734,1.105,1.105,0,0,0-.29-.219,1.06,1.06,0,0,0-.31-.1,1.306,1.306,0,0,0-.489.016l-.132.039-.044.019a.966.966,0,0,0-.167.079,1.168,1.168,0,0,0-.172.12.765.765,0,0,0-.161.206.853.853,0,0,0-.08.65.64.64,0,0,0,.576.422.747.747,0,0,0,.387-.072.547.547,0,0,0,.313-.61.39.39,0,0,0-.184-.247c-.4-.246-.654.095-.668.032a1.249,1.249,0,0,1,.161-.131.362.362,0,0,1,.243-.071.745.745,0,0,1,.315.079.5.5,0,0,1,.257.305.732.732,0,0,1-.03.443.833.833,0,0,1-.805.463.845.845,0,0,1-.776-.539,1.069,1.069,0,0,1,.059-.809l-.029-.038c-.041-.048-.086-.109-.147-.172s-.13-.133-.206-.209a3.379,3.379,0,0,0-.264-.222,3.678,3.678,0,0,0-.321-.208,2.487,2.487,0,0,0-.368-.172,2.113,2.113,0,0,0-.4-.109,1.781,1.781,0,0,0-.412-.019c-.067,0-.134.012-.2.022s-.138.018-.2.032a2.976,2.976,0,0,0-.369.091l-.165.063-.145.078a.979.979,0,0,0-.125.085.719.719,0,0,0-.108.084,1.61,1.61,0,0,0-.158.16l-.125.155.1-.173a1.652,1.652,0,0,1,.142-.183.768.768,0,0,1,.1-.1.871.871,0,0,1,.125-.1l.147-.094.169-.079a2.219,2.219,0,0,1,.383-.119c.069-.017.137-.029.205-.04a1.69,1.69,0,0,1,.215-.028,1.917,1.917,0,0,1,.449.016,2.29,2.29,0,0,1,.813.317,2.608,2.608,0,0,1,.322.237,3.429,3.429,0,0,1,.255.248,2.826,2.826,0,0,1,.316.425l.016.028v0a1.01,1.01,0,0,1,.208-.281c.058-.047.109-.091.158-.125-.015-.029-.032-.061-.055-.1a1.863,1.863,0,0,0-.267-.353,2.983,2.983,0,0,0-.328-.3L246,59.7s-.062-.052-.158-.126a3.424,3.424,0,0,0-.373-.245,2.755,2.755,0,0,0-.4-.191c-.115-.045-.2-.064-.2-.086s.089-.032.219-.016a1.811,1.811,0,0,1,.463.121,2.908,2.908,0,0,1,.429.212c.112.068.184.118.184.118s.066.058.163.147a2.59,2.59,0,0,1,.314.366,1.423,1.423,0,0,1,.216.432.481.481,0,0,1,.022.1.856.856,0,0,1,.137-.072l.055-.024.055-.022.162-.043a1.553,1.553,0,0,1,.591,0,1.3,1.3,0,0,1,.376.134,1.329,1.329,0,0,1,.345.28,1.515,1.515,0,0,1,.349.865,1.587,1.587,0,0,1-.036.472,1.605,1.605,0,0,1-.07.22,1.108,1.108,0,0,1-.094.2,1.658,1.658,0,0,1-.53.588.966.966,0,0,1-.144.083.859.859,0,0,1-.135.064,1.73,1.73,0,0,1-.233.069c-.068.009-.12.015-.156.017.027.013.053.026.077.04a1.12,1.12,0,0,1,.209.139l.075.059.063.072a1.211,1.211,0,0,1,.151.2,1.6,1.6,0,0,1,.157.317c.017.061.036.124.052.188s.025.132.031.2a1.544,1.544,0,0,1-.1.721,1.07,1.07,0,0,1-.109.21c-.032.048-.053.072-.061.068s0-.037.012-.091.038-.128.059-.219a1.63,1.63,0,0,0,.014-.662c-.011-.059-.03-.117-.044-.173l-.06-.162a1.443,1.443,0,0,0-.153-.256.722.722,0,0,0-.078-.1.426.426,0,0,1,.052.083,1.044,1.044,0,0,1,.066.519,1.763,1.763,0,0,1-.068.347,1.691,1.691,0,0,1-.074.179,1.241,1.241,0,0,1-.111.177,1.478,1.478,0,0,1-.3.3,2.3,2.3,0,0,1-.374.223,2.469,2.469,0,0,1-.412.15,1.688,1.688,0,0,1-.421.059,1.383,1.383,0,0,1-.4-.047,1.35,1.35,0,0,1-.327-.14.789.789,0,0,1-.13-.088.811.811,0,0,1-.106-.093,1.02,1.02,0,0,1-.094-.1c.05.086.078.142.066.151a2.38,2.38,0,0,1-.572-.647,2.585,2.585,0,0,1-.165-.278,1.873,1.873,0,0,1-.1-.227,1.464,1.464,0,0,1-.081.223,1.212,1.212,0,0,1-.2.309,1.082,1.082,0,0,1-.286.217,1.309,1.309,0,0,1-.6.127,1.359,1.359,0,0,1-.574-.1c0-.024.234.022.57,0a1.252,1.252,0,0,0,.533-.154.939.939,0,0,0,.387-.471,1.244,1.244,0,0,0,.085-.61.869.869,0,0,0-.2-.466.8.8,0,0,0-.3-.2.976.976,0,0,0-.133-.042l-.036-.009a.864.864,0,0,0-.1-.02,1.283,1.283,0,0,0-.377,0,.851.851,0,0,0-.459.209.563.563,0,0,0-.112.533.6.6,0,0,0,.393.408.7.7,0,0,0,.521-.062.44.44,0,0,0,.219-.3c.015-.094,0-.153.016-.155s.036.052.038.16a.485.485,0,0,1-.216.381.8.8,0,0,1-.615.12.776.776,0,0,1-.411-1.235Z" transform="translate(-242.258 -59.028)" fill="#eebf50"/>
          </g>
        </g>
      </g>
      <g id="Group_28891" data-name="Group 28891" transform="translate(29.621 6.827)">
        <g id="Group_43772" data-name="Group 43772" transform="translate(18.661 23.001)">
          <g id="Group_43777" data-name="Group 43777" transform="translate(0)">
            <g id="Group_43776" data-name="Group 43776" transform="translate(0 0.082)">
              <path id="Path_85273" data-name="Path 85273" d="M273.488,127.726a1.566,1.566,0,0,0-1.571,2.624,2,2,0,0,0,1.11.5,2.671,2.671,0,0,0,2.228-.771,2.828,2.828,0,0,0,.766-1.977l.134,0a1.517,1.517,0,0,0,.283.88,1.941,1.941,0,0,0,1.394.655,2.82,2.82,0,0,0,1.787-.38,1.855,1.855,0,0,0,.88-1.529h-.026a1.683,1.683,0,0,1-.708.983,2.573,2.573,0,0,1-1.163.4,2.018,2.018,0,0,1-1.86-.652,1.739,1.739,0,0,1-.164-1.606,2.623,2.623,0,0,1,.4-.708,3.224,3.224,0,0,1,1.89-.784,4.905,4.905,0,0,1,5.068,6.719,3.51,3.51,0,0,1,2.88-.591,6.139,6.139,0,0,1,4.273,3.084,6.7,6.7,0,0,0-5.063-.412,25.061,25.061,0,0,1-3.035,1.137,2.4,2.4,0,0,1-2.742-1.18,2.929,2.929,0,0,1-3.018,1.335,2.607,2.607,0,0,1-1.085-.523q-5.238.066-10.476.134c-2.376.03-4.756.061-7.132-.028a7.553,7.553,0,0,0,3.309-1.407,14.209,14.209,0,0,1,1.712-1.273,2.132,2.132,0,0,1,2.038-.112,2.727,2.727,0,0,1,.9-1.869,1.683,1.683,0,0,1,1.58-.532v0a2.967,2.967,0,0,1,.476.09,2.542,2.542,0,0,1,1.149.638,1.65,1.65,0,0,1,.495,1.194,1.232,1.232,0,0,1-.675,1.067,1.3,1.3,0,0,1-.544.112,1.718,1.718,0,0,1-.722-.155,1.086,1.086,0,0,1-.486-.4.7.7,0,0,1-.089-.211.944.944,0,0,0,.274.769,1.3,1.3,0,0,0,1,.336,1.727,1.727,0,0,0,1.552-1.672,2.136,2.136,0,0,0-2.055-1.918,2.52,2.52,0,0,0-.445.012,2.966,2.966,0,0,1,.028-2.312,4.258,4.258,0,0,1,1.93-2,5.166,5.166,0,0,1,1.451-.523,4.269,4.269,0,0,1,1.74.272,4.076,4.076,0,0,1,1.569.985,2.664,2.664,0,0,1,.751,1.668,2.749,2.749,0,0,1-.254,1.239,2.556,2.556,0,0,1-.8,1.046,1.624,1.624,0,0,1-1.261.305,1.727,1.727,0,0,1-.558-.235,1.442,1.442,0,0,1-.436-.4,1.275,1.275,0,0,1,.218-1.566A1.714,1.714,0,0,1,273.488,127.726Zm2.2,6.731a2.2,2.2,0,0,1,1.445-3.408,1.7,1.7,0,0,1,1.334.3,1.166,1.166,0,0,1,.4,1.253,1.013,1.013,0,0,1-1.21.609,1.621,1.621,0,0,1-.788-.656,1.277,1.277,0,0,0,1.749.978,1.556,1.556,0,0,0,.631-2.066,2.023,2.023,0,0,0-2.045-.978,2.506,2.506,0,0,0-2.071,2.462A2.573,2.573,0,0,0,275.687,134.457Z" transform="translate(-258.539 -124.861)" fill="#fff"/>
            </g>
            <path id="Path_85276" data-name="Path 85276" d="M291.73,129.478a2.518,2.518,0,0,0-.445.012c.021.047.042.092.066.137v0a2.966,2.966,0,0,1,.476.09,2.541,2.541,0,0,1,1.149.638,1.65,1.65,0,0,1,.5,1.194,1.233,1.233,0,0,1-.675,1.067,1.3,1.3,0,0,1-.544.112,1.719,1.719,0,0,1-.722-.155,1.086,1.086,0,0,1-.486-.4.7.7,0,0,1-.089-.211.944.944,0,0,0,.274.769,1.3,1.3,0,0,0,1,.336,1.727,1.727,0,0,0,1.552-1.672A2.136,2.136,0,0,0,291.73,129.478Zm8.755.8a2.506,2.506,0,0,0-2.071,2.462,2.572,2.572,0,0,0,.551,1.508,2.2,2.2,0,0,1,1.445-3.408,1.7,1.7,0,0,1,1.334.3,1.166,1.166,0,0,1,.4,1.253,1.013,1.013,0,0,1-1.21.609,1.621,1.621,0,0,1-.788-.656,1.277,1.277,0,0,0,1.749.978,1.556,1.556,0,0,0,.631-2.066A2.023,2.023,0,0,0,300.486,130.279ZM299.3,127.89a3.021,3.021,0,0,0-.235-1.175,3.642,3.642,0,0,0-2.545-2.043,4.374,4.374,0,0,0-1.825-.012,4.269,4.269,0,0,1,1.74.272,4.076,4.076,0,0,1,1.569.985,2.664,2.664,0,0,1,.751,1.668,2.751,2.751,0,0,1-.254,1.239,2.557,2.557,0,0,1-.8,1.046,1.624,1.624,0,0,1-1.261.305,1.727,1.727,0,0,1-.558-.235,1.442,1.442,0,0,1-.436-.4,1.275,1.275,0,0,1,.218-1.566,1.714,1.714,0,0,1,1.105-.455,1.566,1.566,0,0,0-1.571,2.624,2,2,0,0,0,1.11.5,2.672,2.672,0,0,0,2.228-.771A2.829,2.829,0,0,0,299.3,127.89Zm4.452-.377a1.683,1.683,0,0,1-.708.983,2.57,2.57,0,0,1-1.163.4,2.017,2.017,0,0,1-1.86-.652,1.738,1.738,0,0,1-.164-1.606,2.623,2.623,0,0,1,.4-.708l-.032.03a2.755,2.755,0,0,0-.694,1.2,2.408,2.408,0,0,0-.1.732,1.517,1.517,0,0,0,.283.88,1.941,1.941,0,0,0,1.394.655,2.821,2.821,0,0,0,1.787-.38,1.855,1.855,0,0,0,.88-1.529Z" transform="translate(-281.818 -124.57)" fill="#eebf50"/>
          </g>
        </g>
      </g>
    </g>
  </g>
</svg>
