<svg id="Layer_1" data-name="Layer 1" xmlns="http://www.w3.org/2000/svg" width="690" height="350" viewBox="0 0 690 350">
  <title>qt_Kho</title>
  <rect width="690" height="350" style="fill: #fff;opacity: 0"/>
  <g>
    <g id="Group_28974" data-name="Group 28974">
      <rect id="Rectangle_15452" data-name="Rectangle 15452" x="419" y="231" width="48" height="48" style="fill: #fff;opacity: 0"/>
      <g id="Group_26860" data-name="Group 26860">
        <rect id="Rectangle_15530" data-name="Rectangle 15530" x="421" y="233" width="36" height="44" rx="2" style="fill: #2ca01c"/>
        <path id="Path_29826" data-name="Path 29826" d="M456.63,238.16A45.72,45.72,0,0,1,423,277h0a2,2,0,0,1-2-2V235a2,2,0,0,1,2-2h32a2,2,0,0,1,2,2Z" style="fill: #47b138"/>
        <path id="Rectangle_15531" data-name="Rectangle 15531" d="M435.48,247.24h0a2.5,2.5,0,0,1,2.5,2.5h0a2.5,2.5,0,0,1-2.5,2.5h0a2.5,2.5,0,0,1-2.5-2.5h0A2.5,2.5,0,0,1,435.48,247.24Z" style="fill: #fff;opacity: 0.5;isolation: isolate"/>
        <path id="Rectangle_15532" data-name="Rectangle 15532" d="M442.48,247.24h0a2.5,2.5,0,0,1,2.5,2.5h0a2.5,2.5,0,0,1-2.5,2.5h0a2.5,2.5,0,0,1-2.5-2.5h0A2.5,2.5,0,0,1,442.48,247.24Z" style="fill: #fff;opacity: 0.5;isolation: isolate"/>
        <path id="Rectangle_15533" data-name="Rectangle 15533" d="M449.48,247.24h0a2.5,2.5,0,0,1,2.5,2.5h0a2.5,2.5,0,0,1-2.5,2.5h0a2.5,2.5,0,0,1-2.5-2.5h0A2.5,2.5,0,0,1,449.48,247.24Z" style="fill: #fff;opacity: 0.5;isolation: isolate"/>
        <path id="Rectangle_15534" data-name="Rectangle 15534" d="M435.48,257.24h0a2.5,2.5,0,0,1,2.5,2.5h0a2.5,2.5,0,0,1-2.5,2.5h0a2.5,2.5,0,0,1-2.5-2.5h0A2.5,2.5,0,0,1,435.48,257.24Z" style="fill: #fff;opacity: 0.5;isolation: isolate"/>
        <path id="Rectangle_15535" data-name="Rectangle 15535" d="M442.48,257.24h0a2.5,2.5,0,0,1,2.5,2.5h0a2.5,2.5,0,0,1-2.5,2.5h0a2.5,2.5,0,0,1-2.5-2.5h0A2.5,2.5,0,0,1,442.48,257.24Z" style="fill: #fff;opacity: 0.5;isolation: isolate"/>
        <path id="Rectangle_15536" data-name="Rectangle 15536" d="M449.48,257.24h0a2.5,2.5,0,0,1,2.5,2.5h0a2.5,2.5,0,0,1-2.5,2.5h0a2.5,2.5,0,0,1-2.5-2.5h0A2.5,2.5,0,0,1,449.48,257.24Z" style="fill: #fff;opacity: 0.5;isolation: isolate"/>
        <path id="Rectangle_15537" data-name="Rectangle 15537" d="M435.48,267.24h0a2.5,2.5,0,0,1,2.5,2.5h0a2.5,2.5,0,0,1-2.5,2.5h0a2.5,2.5,0,0,1-2.5-2.5h0A2.5,2.5,0,0,1,435.48,267.24Z" style="fill: #fff;opacity: 0.5;isolation: isolate"/>
        <rect id="Rectangle_15538" data-name="Rectangle 15538" x="425" y="247" width="5" height="5" style="fill: #fff;opacity: 0.5;isolation: isolate"/>
        <rect id="Rectangle_15539" data-name="Rectangle 15539" x="425" y="257" width="5" height="5" style="fill: #fff;opacity: 0.5;isolation: isolate"/>
        <rect id="Rectangle_15540" data-name="Rectangle 15540" x="425" y="267" width="5" height="5" style="fill: #fff;opacity: 0.5;isolation: isolate"/>
        <path id="Rectangle_15541" data-name="Rectangle 15541" d="M442.48,267.24h0a2.5,2.5,0,0,1,2.5,2.5h0a2.5,2.5,0,0,1-2.5,2.5h0a2.5,2.5,0,0,1-2.5-2.5h0A2.5,2.5,0,0,1,442.48,267.24Z" style="fill: #fff;opacity: 0.5;isolation: isolate"/>
        <path id="Rectangle_15542" data-name="Rectangle 15542" d="M452,267.24h0a3,3,0,0,1,3,3h0a3,3,0,0,1-3,3h0a3,3,0,0,1-3-3h0A3,3,0,0,1,452,267.24Z" style="fill: #fff"/>
        <g id="Group_26859" data-name="Group 26859">
          <g id="Group_26842" data-name="Group 26842">
            <g id="Group_26839" data-name="Group 26839">
              <g id="Group_26836" data-name="Group 26836">
                <g id="Group_26835" data-name="Group 26835">
                  <rect id="Rectangle_15543" data-name="Rectangle 15543" x="456" y="268" width="9" height="9" style="fill: #fb0"/>
                </g>
              </g>
              <g id="Group_26838" data-name="Group 26838">
                <g id="Group_26837" data-name="Group 26837">
                  <path id="Path_29827" data-name="Path 29827" d="M464,268v8h-8v-8h8m1-1H455v10h10Z" style="fill: #e59033"/>
                </g>
              </g>
            </g>
            <g id="Group_26841" data-name="Group 26841">
              <g id="Group_26840" data-name="Group 26840">
                <rect id="Rectangle_15544" data-name="Rectangle 15544" x="459" y="267" width="2" height="5" style="fill: #e59033"/>
              </g>
            </g>
          </g>
          <g id="Group_26850" data-name="Group 26850">
            <g id="Group_26847" data-name="Group 26847">
              <g id="Group_26844" data-name="Group 26844">
                <g id="Group_26843" data-name="Group 26843">
                  <rect id="Rectangle_15545" data-name="Rectangle 15545" x="447" y="268" width="9" height="9" style="fill: #fb0"/>
                </g>
              </g>
              <g id="Group_26846" data-name="Group 26846">
                <g id="Group_26845" data-name="Group 26845">
                  <path id="Path_29828" data-name="Path 29828" d="M455,268v8h-8v-8h8m1-1H446v10h10Z" style="fill: #e59033"/>
                </g>
              </g>
            </g>
            <g id="Group_26849" data-name="Group 26849">
              <g id="Group_26848" data-name="Group 26848">
                <rect id="Rectangle_15546" data-name="Rectangle 15546" x="450" y="267" width="2" height="5" style="fill: #e59033"/>
              </g>
            </g>
          </g>
          <g id="Group_26858" data-name="Group 26858">
            <g id="Group_26855" data-name="Group 26855">
              <g id="Group_26852" data-name="Group 26852">
                <g id="Group_26851" data-name="Group 26851">
                  <rect id="Rectangle_15547" data-name="Rectangle 15547" x="456" y="259" width="9" height="9" style="fill: #fb0"/>
                </g>
              </g>
              <g id="Group_26854" data-name="Group 26854">
                <g id="Group_26853" data-name="Group 26853">
                  <path id="Path_29829" data-name="Path 29829" d="M464,259v8h-8v-8h8m1-1H455v10h10Z" style="fill: #e59033"/>
                </g>
              </g>
            </g>
            <g id="Group_26857" data-name="Group 26857">
              <g id="Group_26856" data-name="Group 26856">
                <rect id="Rectangle_15548" data-name="Rectangle 15548" x="459" y="258" width="2" height="5" style="fill: #e59033"/>
              </g>
            </g>
          </g>
        </g>
        <rect id="Rectangle_15549" data-name="Rectangle 15549" x="423" y="235" width="32" height="8" rx="2" style="fill: #fff;opacity: 0.5;isolation: isolate"/>
      </g>
    </g>
    <g id="Group_28975" data-name="Group 28975">
      <rect id="Rectangle_15422" data-name="Rectangle 15422" x="563" y="231" width="48" height="48" style="fill: #fff;fill-opacity: 0"/>
      <g id="Group_26865" data-name="Group 26865">
        <rect id="Rectangle_15512" data-name="Rectangle 15512" x="565" y="233" width="36" height="44" rx="2" style="fill: #2ca01c"/>
        <path id="Path_29808" data-name="Path 29808" d="M600.63,238.16A45.72,45.72,0,0,1,567,277h0a2,2,0,0,1-2-2V235a2,2,0,0,1,2-2h32a2,2,0,0,1,2,2Z" style="fill: #47b138"/>
        <g id="Rectangle_15513" data-name="Rectangle 15513">
          <rect x="597" y="253" width="12" height="13" style="fill: #fb0"/>
          <rect x="597.5" y="253.5" width="11" height="12" style="fill: none;stroke: #e59033;stroke-miterlimit: 10"/>
        </g>
        <g id="Rectangle_15514" data-name="Rectangle 15514">
          <rect x="597" y="265" width="12" height="12" style="fill: #fb0"/>
          <rect x="597.5" y="265.5" width="11" height="11" style="fill: none;stroke: #e59033;stroke-miterlimit: 10"/>
        </g>
        <g id="Rectangle_15515" data-name="Rectangle 15515">
          <rect x="585" y="265" width="13" height="12" style="fill: #fb0"/>
          <rect x="585.5" y="265.5" width="12" height="11" style="fill: none;stroke: #e59033;stroke-miterlimit: 10"/>
        </g>
        <rect id="Rectangle_15516" data-name="Rectangle 15516" x="590" y="266" width="2" height="5" style="fill: #e59033"/>
        <rect id="Rectangle_15517" data-name="Rectangle 15517" x="602" y="266" width="2" height="5" style="fill: #e59033"/>
        <rect id="Rectangle_15518" data-name="Rectangle 15518" x="602" y="254" width="2" height="5" style="fill: #e59033"/>
        <g id="Group_26800" data-name="Group 26800" style="opacity: 0.5">
          <path id="Path_11120-2" data-name="Path 11120-2" d="M582,240h12v2H582Z" style="fill: #fff"/>
          <path id="Path_11120-2-2" data-name="Path 11120-2-2" d="M582,247h12v2H582Z" style="fill: #fff"/>
          <path id="Path_11120-2-3" data-name="Path 11120-2-3" d="M582,254h12v2H582Z" style="fill: #fff"/>
          <path id="Path_11120-2-4" data-name="Path 11120-2-4" d="M582,260h12v2H582Z" style="fill: #fff"/>
        </g>
        <path id="Path_29879" data-name="Path 29879" d="M570.82,242.24l2,2,4-4" style="fill: none;stroke: #fff;stroke-linecap: round;stroke-linejoin: round;stroke-width: 2px"/>
        <path id="Path_29880" data-name="Path 29880" d="M570.82,248.24l2,2,4-4" style="fill: none;stroke: #fff;stroke-linecap: round;stroke-linejoin: round;stroke-width: 2px"/>
        <path id="Path_29881" data-name="Path 29881" d="M570.82,254.24l2,2,4-4" style="fill: none;stroke: #fff;stroke-linecap: round;stroke-linejoin: round;stroke-width: 2px"/>
        <path id="Path_29882" data-name="Path 29882" d="M570.82,260.24l2,2,4-4" style="fill: none;stroke: #fff;stroke-linecap: round;stroke-linejoin: round;stroke-width: 2px"/>
      </g>
    </g>
    <g id="Group_28976" data-name="Group 28976">
      <rect id="Rectangle_15452-2" data-name="Rectangle 15452-2" x="65" y="225" width="48" height="48" style="fill: #fff;opacity: 0"/>
      <g id="Group_26811" data-name="Group 26811">
        <g id="Group_26802" data-name="Group 26802">
          <rect id="Rectangle_15519" data-name="Rectangle 15519" x="67" y="227" width="36" height="44" rx="2" style="fill: #2ca01c"/>
        </g>
        <g id="Group_26803" data-name="Group 26803">
          <path id="Path_29810" data-name="Path 29810" d="M102.63,232.16A45.72,45.72,0,0,1,69,271h0a2,2,0,0,1-2-2V229a2,2,0,0,1,2-2h32a2,2,0,0,1,2,2Z" style="fill: #47b138"/>
        </g>
        <g id="Group_26804" data-name="Group 26804" style="opacity: 0.5">
          <g id="Path_11120-2-5" data-name="Path 11120-2-5">
            <path id="Path_29811" data-name="Path 29811" d="M71,251H83v2H71Z" style="fill: #fff"/>
          </g>
          <g id="Path_11120-2-6" data-name="Path 11120-2-6">
            <path id="Path_29812" data-name="Path 29812" d="M71,255H83v2H71Z" style="fill: #fff"/>
          </g>
          <g id="Path_11120-2-7" data-name="Path 11120-2-7">
            <path id="Path_29813" data-name="Path 29813" d="M71,259H83v2H71Z" style="fill: #fff"/>
          </g>
          <g id="Path_11120-2-8" data-name="Path 11120-2-8">
            <path id="Path_29814" data-name="Path 29814" d="M71,263H83v2H71Z" style="fill: #fff"/>
          </g>
        </g>
        <g id="Group_26805" data-name="Group 26805">
          <path id="Path_29815" data-name="Path 29815" d="M80,232.24a7,7,0,1,1-7,7,7,7,0,0,1,7-7m0-2a9,9,0,1,0,9,9A9,9,0,0,0,80,230.24Z" style="fill: #fff"/>
        </g>
        <g id="Group_26810" data-name="Group 26810">
          <g id="Group_26807" data-name="Group 26807">
            <path id="Path_29817" data-name="Path 29817" d="M105,259l-1.37-.91-4.09,5.21.46.7,4.4,5.28a2,2,0,0,0,1.54.72h.23a2,2,0,0,0,1.42-.59l2.82-2.82a2,2,0,0,0,.59-1.42v-.23a2,2,0,0,0-.72-1.54Z" style="fill: #e59033"/>
          </g>
          <g id="Group_26808" data-name="Group 26808">
            <path id="Path_29818" data-name="Path 29818" d="M93,254l2.25,2.25,2.24-1.76L95,252v-2l-5-3-2,2,3,5Z" style="fill: #e59033"/>
          </g>
          <g id="Group_26809" data-name="Group 26809">
            <path id="Path_29819" data-name="Path 29819" d="M105,257.5a5.48,5.48,0,0,0,5.5-5.46,5.78,5.78,0,0,0-.17-1.37L107,254l-4-4,3.33-3.33a5.49,5.49,0,0,0-6.62,6.82L87,263.5a2.5,2.5,0,0,0-1,2v.2a2.51,2.51,0,0,0,.73,1.77l2.83,2.83a2.51,2.51,0,0,0,1.77.73h.2a2.46,2.46,0,0,0,2-1l10-12.75A5.42,5.42,0,0,0,105,257.5Z" style="fill: #fb0"/>
          </g>
        </g>
        <path id="Path_29884" data-name="Path 29884" d="M77,239.24l2,2,4-4" style="fill: none;stroke: #fff;stroke-linecap: round;stroke-linejoin: round;stroke-width: 2px"/>
      </g>
    </g>
    <g id="Group_28977" data-name="Group 28977">
      <rect id="Rectangle_15422-2" data-name="Rectangle 15422-2" x="69" y="35" width="48" height="48" style="fill: #fff;fill-opacity: 0"/>
      <g id="Group_26801" data-name="Group 26801">
        <rect id="Rectangle_15512-2" data-name="Rectangle 15512-2" x="71" y="37" width="36" height="44" rx="2" style="fill: #2ca01c"/>
        <path id="Path_29808-2" data-name="Path 29808-2" d="M106.63,42.16A45.72,45.72,0,0,1,73,81h0a2,2,0,0,1-2-2V39a2,2,0,0,1,2-2h32a2,2,0,0,1,2,2Z" style="fill: #47b138"/>
        <g id="Rectangle_15513-2" data-name="Rectangle 15513-2">
          <rect x="103" y="57" width="12" height="13" style="fill: #fb0"/>
          <rect x="103.5" y="57.5" width="11" height="12" style="fill: none;stroke: #e59033;stroke-miterlimit: 10"/>
        </g>
        <g id="Rectangle_15514-2" data-name="Rectangle 15514-2">
          <rect x="103" y="69" width="12" height="12" style="fill: #fb0"/>
          <rect x="103.5" y="69.5" width="11" height="11" style="fill: none;stroke: #e59033;stroke-miterlimit: 10"/>
        </g>
        <g id="Rectangle_15515-2" data-name="Rectangle 15515-2">
          <rect x="91" y="69" width="13" height="12" style="fill: #fb0"/>
          <rect x="91.5" y="69.5" width="12" height="11" style="fill: none;stroke: #e59033;stroke-miterlimit: 10"/>
        </g>
        <rect id="Rectangle_15516-2" data-name="Rectangle 15516-2" x="96" y="70" width="2" height="5" style="fill: #e59033"/>
        <rect id="Rectangle_15517-2" data-name="Rectangle 15517-2" x="108" y="70" width="2" height="5" style="fill: #e59033"/>
        <rect id="Rectangle_15518-2" data-name="Rectangle 15518-2" x="108" y="58" width="2" height="5" style="fill: #e59033"/>
        <g id="Group_26800-2" data-name="Group 26800-2" style="opacity: 0.5">
          <path id="Path_11120-2-9" data-name="Path 11120-2-9" d="M75,61H99v2H75Z" style="fill: #fff"/>
          <path id="Path_11120-2-10" data-name="Path 11120-2-10" d="M75,65H99v2H75Z" style="fill: #fff"/>
          <path id="Path_11120-2-11" data-name="Path 11120-2-11" d="M75,69H87v2H75Z" style="fill: #fff"/>
          <path id="Path_11120-2-12" data-name="Path 11120-2-12" d="M75,73H87v2H75Z" style="fill: #fff"/>
        </g>
        <g id="Ellipse_3826" data-name="Ellipse 3826">
          <circle cx="83.98" cy="49.24" r="9" style="fill: none"/>
          <circle cx="83.98" cy="49.24" r="8" style="fill: none;stroke: #fff;stroke-miterlimit: 10;stroke-width: 2px"/>
        </g>
        <path id="Path_29883" data-name="Path 29883" d="M81,49.24l2,2,4-4" style="fill: none;stroke: #fff;stroke-linecap: round;stroke-linejoin: round;stroke-width: 2px"/>
      </g>
    </g>
    <g id="Group_28978" data-name="Group 28978">
      <rect id="Rectangle_15422-3" data-name="Rectangle 15422-3" x="255" y="51" width="48" height="48" style="fill: #fff;fill-opacity: 0"/>
      <g id="Group_26746" data-name="Group 26746">
        <g id="Group_26746-2" data-name="Group 26746-2">
          <path id="Path_29784" data-name="Path 29784" d="M301,97H257V65l22-12,2.9,1.58L301,65Z" style="fill: #2ca01c"/>
        </g>
        <g id="Group_26747" data-name="Group 26747">
          <rect id="Rectangle_15495" data-name="Rectangle 15495" x="261" y="68" width="36" height="29" style="fill: #47b138"/>
        </g>
        <g id="Group_26763" data-name="Group 26763">
          <g id="Group_26752" data-name="Group 26752">
            <g id="Group_26750" data-name="Group 26750">
              <g id="Group_26748" data-name="Group 26748">
                <rect id="Rectangle_15496" data-name="Rectangle 15496" x="289" y="82" width="9" height="9" style="fill: #fb0"/>
              </g>
              <g id="Group_26749" data-name="Group 26749">
                <path id="Path_29785" data-name="Path 29785" d="M298,82v8h-8V82h8m1-1H289V91h10Z" style="fill: #e59033"/>
              </g>
            </g>
            <g id="Group_26751" data-name="Group 26751">
              <rect id="Rectangle_15497" data-name="Rectangle 15497" x="293" y="81" width="2" height="5" style="fill: #e59033"/>
            </g>
          </g>
          <g id="Group_26757" data-name="Group 26757">
            <g id="Group_26755" data-name="Group 26755">
              <g id="Group_26753" data-name="Group 26753">
                <rect id="Rectangle_15498" data-name="Rectangle 15498" x="280" y="82" width="9" height="9" style="fill: #fb0"/>
              </g>
              <g id="Group_26754" data-name="Group 26754">
                <path id="Path_29786" data-name="Path 29786" d="M289,82v8h-8V82h8m1-1H280V91h10Z" style="fill: #e59033"/>
              </g>
            </g>
            <g id="Group_26756" data-name="Group 26756">
              <rect id="Rectangle_15499" data-name="Rectangle 15499" x="284" y="81" width="2" height="5" style="fill: #e59033"/>
            </g>
          </g>
          <g id="Group_26762" data-name="Group 26762">
            <g id="Group_26760" data-name="Group 26760">
              <g id="Group_26758" data-name="Group 26758">
                <rect id="Rectangle_15500" data-name="Rectangle 15500" x="289" y="73" width="9" height="9" style="fill: #fb0"/>
              </g>
              <g id="Group_26759" data-name="Group 26759">
                <path id="Path_29787" data-name="Path 29787" d="M298,73v8h-8V73h8m1-1H289V82h10Z" style="fill: #e59033"/>
              </g>
            </g>
            <g id="Group_26761" data-name="Group 26761">
              <rect id="Rectangle_15501" data-name="Rectangle 15501" x="293" y="72" width="2" height="5" style="fill: #e59033"/>
            </g>
          </g>
        </g>
        <g id="Group_26764" data-name="Group 26764" style="opacity: 0.5">
          <g id="Path_11120-2-13" data-name="Path 11120-2-13">
            <path id="Path_29788" data-name="Path 29788" d="M275,61h8v2h-8Z" style="fill: #fff"/>
          </g>
        </g>
        <g id="Group_26769" data-name="Group 26769" style="opacity: 0.5">
          <g id="Group_26765" data-name="Group 26765">
            <path id="Rectangle_15502" data-name="Rectangle 15502" d="M284,91.24h0a3,3,0,0,1,3,3h0a3,3,0,0,1-3,3h0a3,3,0,0,1-3-3h0A3,3,0,0,1,284,91.24Z" style="fill: #fff"/>
          </g>
          <g id="Group_26766" data-name="Group 26766">
            <path id="Rectangle_15503" data-name="Rectangle 15503" d="M294,91.24h0a3,3,0,0,1,3,3h0a3,3,0,0,1-3,3h0a3,3,0,0,1-3-3h0A3,3,0,0,1,294,91.24Z" style="fill: #fff"/>
          </g>
          <g id="Group_26767" data-name="Group 26767">
            <path id="Path_29790" data-name="Path 29790" d="M300,93H278a1,1,0,0,1-1-1V78a1,1,0,0,1,2,0V91h21a1,1,0,0,1,0,2Z" style="fill: #fff"/>
          </g>
          <g id="Group_26768" data-name="Group 26768">
            <path id="Path_29791" data-name="Path 29791" d="M278,91h-4a1,1,0,0,1-1-1V80a1,1,0,0,1,1-1h4a1,1,0,0,1,0,2h-3v8h3a1,1,0,0,1,0,2Z" style="fill: #fff"/>
          </g>
        </g>
        <g id="Path_11120-2-14" data-name="Path 11120-2-14">
          <path id="Path_29792" data-name="Path 29792" d="M263,81h8v2h-8Z" style="fill: #fff"/>
        </g>
        <g id="Path_11120-2-15" data-name="Path 11120-2-15">
          <path id="Path_29793" data-name="Path 29793" d="M261,85h10v2H261Z" style="fill: #fff"/>
        </g>
        <g id="Path_11120-2-16" data-name="Path 11120-2-16">
          <path id="Path_29794" data-name="Path 29794" d="M265,89h6v2h-6Z" style="fill: #fff"/>
        </g>
      </g>
    </g>
    <g id="Group_28979" data-name="Group 28979">
      <rect id="Rectangle_15422-4" data-name="Rectangle 15422-4" x="397" y="51" width="48" height="48" style="fill: #fff;fill-opacity: 0"/>
      <g id="Group_26799" data-name="Group 26799">
        <path id="Path_29795" data-name="Path 29795" d="M443,97H399V65l22-12,2.9,1.58L443,65Z" style="fill: #2ca01c"/>
        <rect id="Rectangle_15504" data-name="Rectangle 15504" x="403" y="68" width="36" height="29" style="fill: #47b138"/>
        <g id="Group_26796" data-name="Group 26796">
          <g id="Group_26786" data-name="Group 26786">
            <g id="Group_26775" data-name="Group 26775">
              <g id="Group_26773" data-name="Group 26773">
                <g id="Group_26771" data-name="Group 26771">
                  <rect id="Rectangle_15505" data-name="Rectangle 15505" x="418" y="76" width="9" height="9" style="fill: #fb0"/>
                </g>
                <g id="Group_26772" data-name="Group 26772">
                  <path id="Path_29796" data-name="Path 29796" d="M426,76v8h-8V76h8m1-1H417V85h10Z" style="fill: #e59033"/>
                </g>
              </g>
              <g id="Group_26774" data-name="Group 26774">
                <rect id="Rectangle_15506" data-name="Rectangle 15506" x="421" y="75" width="2" height="5" style="fill: #e59033"/>
              </g>
            </g>
            <g id="Group_26780" data-name="Group 26780">
              <g id="Group_26778" data-name="Group 26778">
                <g id="Group_26776" data-name="Group 26776">
                  <rect id="Rectangle_15507" data-name="Rectangle 15507" x="409" y="76" width="9" height="9" style="fill: #fb0"/>
                </g>
                <g id="Group_26777" data-name="Group 26777">
                  <path id="Path_29797" data-name="Path 29797" d="M417,76v8h-8V76h8m1-1H408V85h10Z" style="fill: #e59033"/>
                </g>
              </g>
              <g id="Group_26779" data-name="Group 26779">
                <rect id="Rectangle_15508" data-name="Rectangle 15508" x="412" y="75" width="2" height="5" style="fill: #e59033"/>
              </g>
            </g>
            <g id="Group_26785" data-name="Group 26785">
              <g id="Group_26783" data-name="Group 26783">
                <g id="Group_26781" data-name="Group 26781">
                  <rect id="Rectangle_15509" data-name="Rectangle 15509" x="418" y="67" width="9" height="9" style="fill: #fb0"/>
                </g>
                <g id="Group_26782" data-name="Group 26782">
                  <path id="Path_29798" data-name="Path 29798" d="M426,67v8h-8V67h8m1-1H417V76h10Z" style="fill: #e59033"/>
                </g>
              </g>
              <g id="Group_26784" data-name="Group 26784">
                <rect id="Rectangle_15510" data-name="Rectangle 15510" x="421" y="66" width="2" height="5" style="fill: #e59033"/>
              </g>
            </g>
          </g>
          <g id="Group_26795" data-name="Group 26795" style="opacity: 0.5">
            <g id="Group_26787" data-name="Group 26787">
              <path id="Path_29799" data-name="Path 29799" d="M435,91.24a2,2,0,1,1-2,2,2,2,0,0,1,2-2m0-2a4,4,0,1,0,4,4A4,4,0,0,0,435,89.24Z" style="fill: #fff"/>
            </g>
            <g id="Group_26788" data-name="Group 26788">
              <path id="Path_29800" data-name="Path 29800" d="M415,91.24a2,2,0,1,1-2,2,2,2,0,0,1,2-2m0-2a4,4,0,1,0,4,4A4,4,0,0,0,415,89.24Z" style="fill: #fff"/>
            </g>
            <g id="Group_26789" data-name="Group 26789">
              <path id="Path_29801" data-name="Path 29801" d="M412,93h-3a1,1,0,0,1-1-1V90a1,1,0,0,1,2,0v1h2a1,1,0,0,1,0,2Z" style="fill: #fff"/>
            </g>
            <g id="Group_26790" data-name="Group 26790">
              <path id="Path_29802" data-name="Path 29802" d="M438,87h-2a1,1,0,0,1,0-2h2a1,1,0,0,1,0,2Z" style="fill: #fff"/>
            </g>
            <g id="Group_26791" data-name="Group 26791">
              <rect id="Rectangle_15511" data-name="Rectangle 15511" x="417" y="91" width="14" height="2" style="fill: #fff"/>
            </g>
            <g id="Group_26792" data-name="Group 26792">
              <path id="Path_29803" data-name="Path 29803" d="M443,90a3,3,0,0,1-3,3h-2a1,1,0,0,1,0-2h2a1,1,0,0,0,1-1V86.71a2,2,0,0,0-.21-.9l-.86-1.71A1.89,1.89,0,0,0,438.2,83a1,1,0,1,1-.05-2,4,4,0,0,1,3.57,2.22l.86,1.7a4,4,0,0,1,.42,1.79Z" style="fill: #fff"/>
            </g>
            <g id="Group_26793" data-name="Group 26793">
              <path id="Path_29804" data-name="Path 29804" d="M438,83a1,1,0,0,1-1-1V80a1,1,0,0,0-1-1h-4a1,1,0,0,0-1,1v2a1,1,0,0,1-2,0V80a3,3,0,0,1,3-3h4a3,3,0,0,1,3,3v2A1,1,0,0,1,438,83Z" style="fill: #fff"/>
            </g>
            <g id="Group_26794" data-name="Group 26794">
              <path id="Path_29805" data-name="Path 29805" d="M430,93a1,1,0,0,1-1-1V87H406a1,1,0,0,1,0-2h24a1,1,0,0,1,1,1v6A1,1,0,0,1,430,93Z" style="fill: #fff"/>
            </g>
          </g>
        </g>
        <g id="Group_26797" data-name="Group 26797">
          <path id="Path_29806" data-name="Path 29806" d="M404,71.24l-2,2,2,2" style="fill: none;stroke: #fff;stroke-linecap: round;stroke-linejoin: round;stroke-width: 2px"/>
          <line id="Line_962" data-name="Line 962" x1="408" y1="73" x2="402" y2="73" style="fill: none;stroke: #fff;stroke-linecap: round;stroke-linejoin: round;stroke-width: 2px"/>
        </g>
        <g id="Group_26798" data-name="Group 26798">
          <path id="Path_29807" data-name="Path 29807" d="M412.57,72.24l2-2-2-2" style="fill: none;stroke: #fff;stroke-linecap: round;stroke-linejoin: round;stroke-width: 2px"/>
          <line id="Line_963" data-name="Line 963" x1="408" y1="70" x2="414" y2="70" style="fill: none;stroke: #fff;stroke-linecap: round;stroke-linejoin: round;stroke-width: 2px"/>
        </g>
      </g>
      <g id="Group_27136" data-name="Group 27136" style="opacity: 0.5">
        <g id="Path_11120-2-17" data-name="Path 11120-2-17">
          <path id="Path_29788-2" data-name="Path 29788-2" d="M417,61h8v2h-8Z" style="fill: #fff"/>
        </g>
      </g>
    </g>
    <g id="Group_28981" data-name="Group 28981">
      <rect id="Rectangle_15452-3" data-name="Rectangle 15452-3" x="277" y="231" width="48" height="48" style="fill: #fff;opacity: 0"/>
      <g id="Group_26834" data-name="Group 26834">
        <g id="Group_26812" data-name="Group 26812">
          <path id="Path_29820" data-name="Path 29820" d="M323,277H279V245l22-12,2.9,1.58L323,245Z" style="fill: #2ca01c"/>
        </g>
        <g id="Group_26813" data-name="Group 26813">
          <rect id="Rectangle_15520" data-name="Rectangle 15520" x="284" y="248" width="36" height="29" style="fill: #47b138"/>
        </g>
        <g id="Group_26818" data-name="Group 26818">
          <g id="Group_26816" data-name="Group 26816">
            <g id="Group_26814" data-name="Group 26814">
              <rect id="Rectangle_15521" data-name="Rectangle 15521" x="302.84" y="255.74" width="9" height="9" transform="translate(-38.44 466.68) rotate(-71.09)" style="fill: #fb0"/>
            </g>
            <g id="Group_26815" data-name="Group 26815">
              <path id="Path_29821" data-name="Path 29821" d="M304.85,255.16l7.57,2.59-2.59,7.57-7.57-2.59,2.59-7.57m-.62-1.27L301,263.35l9.47,3.24,3.23-9.46Z" style="fill: #e59033"/>
            </g>
          </g>
          <g id="Group_26817" data-name="Group 26817">
            <rect id="Rectangle_15522" data-name="Rectangle 15522" x="305.65" y="256.87" width="5" height="2" transform="translate(-35.57 465.98) rotate(-71.12)" style="fill: #e59033"/>
          </g>
        </g>
        <g id="Group_26823" data-name="Group 26823">
          <g id="Group_26821" data-name="Group 26821">
            <g id="Group_26819" data-name="Group 26819">
              <rect id="Rectangle_15523" data-name="Rectangle 15523" x="290" y="256" width="9" height="9" style="fill: #fb0"/>
            </g>
            <g id="Group_26820" data-name="Group 26820">
              <path id="Path_29822" data-name="Path 29822" d="M298,256v8h-8v-8h8m1-1H289v10h10Z" style="fill: #e59033"/>
            </g>
          </g>
          <g id="Group_26822" data-name="Group 26822">
            <rect id="Rectangle_15524" data-name="Rectangle 15524" x="294" y="255" width="2" height="5" style="fill: #e59033"/>
          </g>
        </g>
        <g id="Group_26828" data-name="Group 26828">
          <g id="Group_26826" data-name="Group 26826">
            <g id="Group_26824" data-name="Group 26824">
              <rect id="Rectangle_15525" data-name="Rectangle 15525" x="312" y="268" width="9" height="9" style="fill: #fb0"/>
            </g>
            <g id="Group_26825" data-name="Group 26825">
              <path id="Path_29823" data-name="Path 29823" d="M320,268v8h-8v-8h8m1-1H311v10h10Z" style="fill: #e59033"/>
            </g>
          </g>
          <g id="Group_26827" data-name="Group 26827">
            <rect id="Rectangle_15526" data-name="Rectangle 15526" x="316" y="267" width="2" height="5" style="fill: #e59033"/>
          </g>
        </g>
        <g id="Group_26829" data-name="Group 26829">
          <path id="Path_29824" data-name="Path 29824" d="M305.12,267H280.57a1,1,0,1,1-.41-2,.94.94,0,0,1,.41,0h24.54a1,1,0,1,1,.42,2,1,1,0,0,1-.42,0Z" style="fill: #fff"/>
        </g>
        <g id="Group_26830" data-name="Group 26830">
          <path id="Path_29825" data-name="Path 29825" d="M305.12,273H280.57a1,1,0,1,1-.41-2,.94.94,0,0,1,.41,0h24.54a1,1,0,1,1,.42,2,1,1,0,0,1-.42,0Z" style="fill: #fff"/>
        </g>
        <g id="Group_26831" data-name="Group 26831" style="opacity: 0.5">
          <path id="Rectangle_15527" data-name="Rectangle 15527" d="M293,267.24h0a2,2,0,0,1,2,2h0a2,2,0,0,1-2,2h0a2,2,0,0,1-2-2h0A2,2,0,0,1,293,267.24Z" style="fill: #fff"/>
        </g>
        <g id="Group_26832" data-name="Group 26832" style="opacity: 0.5">
          <path id="Rectangle_15528" data-name="Rectangle 15528" d="M285,267.24h0a2,2,0,0,1,2,2h0a2,2,0,0,1-2,2h0a2,2,0,0,1-2-2h0A2,2,0,0,1,285,267.24Z" style="fill: #fff"/>
        </g>
        <g id="Group_26833" data-name="Group 26833" style="opacity: 0.5">
          <path id="Rectangle_15529" data-name="Rectangle 15529" d="M301,267.24h0a2,2,0,0,1,2,2h0a2,2,0,0,1-2,2h0a2,2,0,0,1-2-2h0A2,2,0,0,1,301,267.24Z" style="fill: #fff"/>
        </g>
        <g id="Group_27135" data-name="Group 27135" style="opacity: 0.5">
          <g id="Path_11120-2-18" data-name="Path 11120-2-18">
            <path id="Path_29788-3" data-name="Path 29788-3" d="M298,241h8v2h-8Z" style="fill: #fff"/>
          </g>
        </g>
      </g>
    </g>
    <line id="Line_1203" data-name="Line 1203" x1="189" y1="79" x2="189" y2="275" style="fill: none;stroke: #b4c8b1;stroke-width: 2px"/>
    <line id="Line_1208" data-name="Line 1208" x1="279" y1="148" x2="279" y2="178" style="fill: none;stroke: #b4c8b1;stroke-width: 2px"/>
    <line id="Line_1216" data-name="Line 1216" x1="421" y1="148" x2="421" y2="178" style="fill: none;stroke: #b4c8b1;stroke-width: 2px"/>
    <line id="Line_1210" data-name="Line 1210" x1="299" y1="177" x2="299" y2="207" style="fill: none;stroke: #b4c8b1;stroke-width: 2px"/>
    <line id="Line_1215" data-name="Line 1215" x1="441" y1="177" x2="441" y2="207" style="fill: none;stroke: #b4c8b1;stroke-width: 2px"/>
    <line id="Line_1214" data-name="Line 1214" x1="585" y1="177" x2="585" y2="207" style="fill: none;stroke: #b4c8b1;stroke-width: 2px"/>
    <line id="Line_1204" data-name="Line 1204" x1="189" y1="177" x2="639" y2="177" style="fill: none;stroke: #b4c8b1;stroke-width: 2px"/>
    <path id="Path_30411" data-name="Path 30411" d="M636,172l5,5-5,5" style="fill: none;stroke: #b4c8b1;stroke-miterlimit: 10;stroke-width: 2px"/>
    <line id="Line_1212" data-name="Line 1212" x1="169" y1="274" x2="189" y2="274" style="fill: none;stroke: #b4c8b1;stroke-width: 2px"/>
    <line id="Line_1213" data-name="Line 1213" x1="169" y1="80" x2="189" y2="80" style="fill: none;stroke: #b4c8b1;stroke-width: 2px"/>
  </g>
</svg>
